<?xml version="1.0" encoding="UTF-8" standalone="no"?>
<svg
   xmlns:dc="http://purl.org/dc/elements/1.1/"
   xmlns:cc="http://creativecommons.org/ns#"
   xmlns:rdf="http://www.w3.org/1999/02/22-rdf-syntax-ns#"
   xmlns:svg="http://www.w3.org/2000/svg"
   xmlns="http://www.w3.org/2000/svg"
   id="svg1413"
   version="1.1"
   viewBox="0 0 35.983333 6.6145835"
   height="25"
   width="136">
  <defs
     id="defs1407" />
  <metadata
     id="metadata1410">
    <rdf:RDF>
      <cc:Work
         rdf:about="">
        <dc:format>image/svg+xml</dc:format>
        <dc:type
           rdf:resource="http://purl.org/dc/dcmitype/StillImage" />
        <dc:title></dc:title>
      </cc:Work>
    </rdf:RDF>
  </metadata>
  <g
     transform="translate(0,-290.3854)"
     id="layer1">
    <g
       transform="matrix(0.38123584,0,0,0.38123584,-8.0164753,241.50945)"
       id="g2051">
      <text
         xml:space="preserve"
         style="font-style:normal;font-weight:normal;font-size:17.51264px;line-height:125%;font-family:sans-serif;letter-spacing:0px;word-spacing:0px;fill:#003087;fill-opacity:1;stroke:none;stroke-width:0.19458489px;stroke-linecap:butt;stroke-linejoin:miter;stroke-opacity:1"
         x="40.016258"
         y="141.5672"
         id="text1960"><tspan
           id="tspan1958"
           x="40.016258"
           y="141.5672"
           style="font-style:normal;font-variant:normal;font-weight:bold;font-stretch:normal;font-size:17.51264px;font-family:Aharoni;-inkscape-font-specification:'Aharoni, Bold';font-variant-ligatures:normal;font-variant-caps:normal;font-variant-numeric:normal;font-feature-settings:normal;text-align:start;writing-mode:lr-tb;text-anchor:start;fill:#003087;fill-opacity:1;stroke-width:0.19458489px">Template</tspan></text>
      <g
         id="g2032"
         transform="translate(114.52679,21.544643)">
        <ellipse
           ry="7.3083262"
           rx="7.5331955"
           cy="113.9871"
           cx="-85.826805"
           id="path2011"
           style="opacity:1;fill:#f1f2f3;fill-opacity:1;stroke:none;stroke-width:0.2687107;stroke-linecap:square;stroke-linejoin:miter;stroke-miterlimit:4;stroke-dasharray:none;stroke-opacity:1;paint-order:stroke markers fill" />
        <path
           id="rect1975"
           transform="scale(0.26458333)"
           d="m -324.38477,406.34961 -6.80468,15.73828 a 11.071428,11.071428 0 0 1 6.80468,-2.3418 11.071428,11.071428 0 0 1 6.8125,2.35938 z m 8.72852,17.66406 c 1.51656,1.94418 2.34072,4.33897 2.3418,6.80469 -0.005,2.4707 -0.83613,4.86876 -2.36133,6.8125 l 15.75781,-6.8125 z m -15.54102,15.51563 6.8125,15.75586 6.80469,-15.74024 a 11.071428,11.071428 0 0 1 -6.80469,2.34375 11.071428,11.071428 0 0 1 -6.8125,-2.35937 z"
           style="opacity:1;fill:#003087;fill-opacity:1;stroke:none;stroke-width:0.7218895;stroke-linecap:square;stroke-linejoin:miter;stroke-miterlimit:4;stroke-dasharray:none;stroke-opacity:1;paint-order:stroke markers fill" />
        <path
           id="rect1975-5-8"
           d="m -88.132089,112.1854 -4.168738,1.80196 4.164605,1.8004 c -0.401439,-0.51433 -0.619681,-1.14795 -0.620117,-1.8004 0.0013,-0.65347 0.221001,-1.28775 0.62425,-1.80196 z"
           style="opacity:1;fill:#ba0c2f;fill-opacity:1;stroke:none;stroke-width:0.19099993;stroke-linecap:square;stroke-linejoin:miter;stroke-miterlimit:4;stroke-dasharray:none;stroke-opacity:1;paint-order:stroke markers fill" />
      </g>
    </g>
  </g>
</svg>
